<?xml version="1.0" encoding="UTF-8"?>
<svg id="Calque_2" data-name="Calque 2" xmlns="http://www.w3.org/2000/svg" viewBox="0 0 385.17 202.25">
  <defs>
    <style>
      .cls-1 {
        fill: #1d1d1b;
      }

      .cls-2 {
        fill: #fff;
      }

      .cls-3 {
        fill: none;
      }
    </style>
  </defs>
  <g id="Layer_2" data-name="Layer 2">
    <g>
      <g>
        <path d="M90.38,101.75c-3.63-21.96-19.48-24.82-26.35-25.02-6.87-.19-14.13.95-28.07,3.06C22.01,81.89-1.28,85.71.06,104.8c1.3,18.56,24.63,19.29,27.88,8.21,2.98-10.18-2.48-16.04-7.07-16.04s-10.32,4.07-8.4,5.35c.57.38,1.15-1.34,3.63-.76,2.48.57,3.44,1.91,4.77,5.16,1.34,3.25,1.15,8.78-3.06,9.74s-10.12-6.3-7.64-16.04c2.48-9.74,11.65-11.08,18.14-11.46,6.49-.38,6.49,3.44,6.87,7.07.38,3.63-.19,47.36-.38,55.38-.19,8.02-2.86,11.08-5.92,11.84-3.06.76-4.77,1.91-2.29,2.29s32.94-3.85,43.42-7.59c16.02-5.72,24.38-31.83,20.36-56.19ZM70.14,135.74c-1.83,6.23-6.21,15.19-11.56,16.33-4.11.88-11.17,3.91-11.74-2.2-.57-6.11.19-28.45.19-28.45-.19-15.47.57-25.59.76-29.22.19-3.63.76-5.73,5.92-6.3,5.16-.57,14.51,1.15,16.99,14.13s2.29,25.97-.57,35.71Z"/>
        <path d="M85.01,78.41c-1.1.35-.76,3.11.38,2.95,2.28-.33,9.56-1.57,9.75,4.16s-.95,55.38-1.34,58.62-2.58,6.39-7.22,8.19c-.98.38-.49,3.66,1.11,3.46,2.31-.29,30.54-4.81,39.66-5.46,1.04-.07,1.87-.87,1.99-1.91.44-3.83,1.08-12.39.93-13.64-.11-.94-2.6-.7-2.67.76-.14,2.96-3.79,6.82-7.07,8.02-3.9,1.43-10.31,2.67-14.13,1.53v-24.06c0-2.1,2.1-7.45,6.3-9.74s6.11.19,5.54,3.25-2.67,3.25-3.82,2.48-1.72,1.91,1.91,2.86,8.76-.14,9.36-6.68-3.82-9.17-8.78-8.78-9.36,4.01-9.36,4.01l-.36-26.72c-.01-.98.56-1.87,1.46-2.26,2.51-1.09,7.68-2.81,11.32-.43,4.96,3.25,5.68,7.64,5.92,9.55.13,1.01,2.74,1.37,2.62-.65s-.24-8.94-.41-12.26c-.06-1.21-1.09-2.12-2.3-2.05-6.89.43-29.44,1.19-40.79,4.79Z"/>
        <path d="M132.05,73.62c-1.25.18-1.25,2.5.36,2.68s6.43,1.16,8.93,5.8,13.49,55.94,14.02,59.39,1.16,5.72,1.7,6.25,4.82,1.43,5.54-.45,1.88-7.14,3.13-11.97c1.13-4.36,16.25-54.21,18.22-57.96s2.23-5.45,5.8-5.45,5.98,2.05,6.07,5.89-1.34,50.55-1.43,54.92.27,5.27-.98,7.32-4.26,3.95-5.72,4.38-1.52,1.96.36,2.23,22.51-.71,23.85-.63,1.88-2.5.18-2.59-5.36-.54-6.16-4.29.15-25.81.27-28.04c.27-4.91,2.23-9.56,6.52-11.43s7.59,1.25,7.14,4.29-2.68,3.22-3.66,2.68-1.61.45-.98,1.43,2.68,3.75,6.52,3.39,6.14-4.08,5.18-9.02c-1.07-5.54-11.52-12.06-19.29-4.29l.17-24.64c0-.65.43-1.23,1.06-1.42,2.07-.61,6.75-1.73,9.67-.38,3.84,1.79,7.62,7.5,8.66,10.81.54,1.7,1.96,1.07,1.96-.09,0-.57-.05-8.43-.18-12.14-.04-1.05-.9-1.89-1.95-1.9-8.4-.06-42.61-.29-49.9-.26-.92,0-1.72.57-2.03,1.43-2.86,7.96-13.12,46.48-13.36,46.8-.27.36-8.57-36.17-8.93-37.69s-2.68-5.09-6.61-5.45-14.11.36-14.11.36Z"/>
        <path d="M273.61,71.39c.78.08,1.37.73,1.36,1.52-.04,3.47-.15,12.3-.21,12.72-.07.52-1.72.3-1.79-.15s-.15-.3-1.34-4.4-6.34-7.16-10.96-7.46-8.28,1.19-8.28,1.19l.07,26.4s9.32-4.55,15.29-1.04,5.15,11.34.97,13.35c-3.76,1.81-7.49.32-8.5-.89-.75-.89-.15-1.52.6-1.34.97.22,2.24-.3,3.13-1.86s.7-6.73-5.82-4.47c-5.82,2.01-6.12,7.09-6.12,7.09l-.91,24.65c-.04.98.58,1.99,1.55,2.11,5.61.68,13.45.01,13.45.01-1.19,1.42-3.9,8.25-3.9,8.25,0,0-28.91.33-30.63.1s-1.2-2.84-.52-2.91.67-.36,4.25-1.49c2.83-.89,2.83-4.1,2.91-6.56s1.64-36.17,1.57-45.19.26-13.95-1.01-16.56-5-2.46-6.49-2.54-.86-2.76-.04-2.76c0,0,35.15,1.65,41.35,2.25Z"/>
        <path d="M319.35,96.86c0-2.9-2.81-9.67-4.78-12.48s-8.22-5.82-12.07-5.72-10.82,1.77-11.55,8.95,8.01,15.39,14.56,21.53,25.5,21.01,30.7,38.48,4.35,34.75-9.28,46.4-39.46,11.6-53.78-4.37c-15.38-17.15-13.94-39.61-3.22-52.63,9.49-11.53,23.55-12.21,34.16-4.83s15.91,29.23,3.33,32.56-19.24-8.01-19.97-10.19,1.35-1.04,1.98-.31,4.47,3.43,7.8,1.77,5.2-10.61-1.25-16.43-16.23-6.07-22.72,3.99c-6.94,10.77-5.62,28.08,3.33,38.17s26.21,15.71,39.01,4.58c12.79-11.13,11.56-30.34,3.45-43.03s-24.15-23.12-30.6-31.24-14.16-22.72-3.64-34.64c7.56-8.56,21.43-4.99,25.48-3.74s7.91,2.18,9.78,2.08,1.66,1.56,1.66,3.54.62,16.33.52,17.27-2.91,1.35-2.91.31Z"/>
        <path d="M329.34,78.66s-.42,17.79-.31,18.72,2.08.94,2.29.31,1.67-11.75,17.07-10.18c.88.09,1.56.82,1.57,1.7l.49,62.26c.02,1.5-.81,2.88-2.15,3.57s-3.21,1.42-4.58,1.21-1.77,1.66-.31,2.08,26.09,2.97,27.75,3.18,1.44-1.48.68-1.86c-2.16-1.08-5.93-1.97-6.66-9.36-.67-6.78-.15-51.72-.17-59.48,0-.58.52-1,1.09-.89,3.29.66,12.31,1.53,15.32,13.75.1,3.43,3.33,2.81,3.22,1.04s.52-17.06.52-17.06c0,0-28.06-6.71-55.83-9Z"/>
        <g>
          <path d="M237.36,33.97c-2.61,0-4.85-1.12-6.74-2.28-2.4-1.48-4.9-2.89-7.32-4.26-1.06-.6-2.12-1.2-3.18-1.81h0s-4.78-2.78-4.78-2.78c-3.76-2.18-7.52-4.36-11.28-6.55-4.21-2.45-5.67-7.66-3.32-11.86,1.13-2.03,2.99-3.49,5.22-4.12,2.21-.62,4.54-.33,6.56.81,5.88,3.34,11.83,6.78,17.59,10.11,2.44,1.41,4.89,2.83,7.33,4.24l1.29.74c.82.47,1.63.94,2.44,1.41,3.28,1.93,4.75,4.85,4.38,8.68-.3,3.1-2.01,5.44-5.07,6.94-.24.12-.49.23-.74.34l-.43.18c-.67.14-1.32.21-1.94.21ZM220.62,24.76c1.05.61,2.11,1.2,3.17,1.8,2.43,1.37,4.94,2.79,7.35,4.28,2.17,1.33,4.8,2.6,7.9,1.96l.29-.13c.24-.1.47-.21.7-.32,2.77-1.36,4.25-3.37,4.52-6.14.33-3.41-.98-6.01-3.89-7.72-.81-.47-1.62-.94-2.43-1.41l-1.29-.74c-2.45-1.41-4.89-2.83-7.33-4.24-5.75-3.33-11.7-6.77-17.58-10.11-1.78-1.01-3.84-1.27-5.79-.72-1.97.55-3.61,1.85-4.62,3.64-2.11,3.78-.84,8.29,2.95,10.5,3.76,2.19,7.52,4.37,11.28,6.55l4.78,2.78Z"/>
          <path d="M180.64,50.4c-1.45,0-2.9-.37-4.21-1.12-4.27-2.45-8.53-4.92-12.79-7.38-4.89-2.82-9.78-5.65-14.67-8.46-1.92-1.1-3.72-2.27-4.74-4.42-2.07-4.36-.52-9.24,3.68-11.59.38-.22.78-.41,1.18-.6l.73-.31c.17,0,.34-.02.51-.03.4-.03.82-.06,1.24,0,.35.04.7.07,1.06.09,1.04.08,2.12.16,3.07.6,1.52.71,2.97,1.6,4.37,2.46.65.4,1.31.81,1.97,1.19,1.54.89,3.08,1.78,4.63,2.66l6.24,3.61c3.47,2.02,6.94,4.04,10.43,6.03,2.25,1.28,4.35,2.65,5.38,5.23,1.37,3.44.47,7.37-2.23,9.78-1.66,1.48-3.75,2.25-5.84,2.25ZM149.96,17.53l-.44.21c-.38.18-.76.36-1.12.57-3.72,2.09-5.1,6.41-3.26,10.29.9,1.89,2.56,2.96,4.33,3.98,4.9,2.81,9.78,5.64,14.67,8.46,4.26,2.46,8.52,4.92,12.79,7.38,2.82,1.62,6.39,1.22,8.89-1.01,2.39-2.13,3.18-5.61,1.97-8.66-.91-2.29-2.78-3.5-4.95-4.74-3.49-1.99-6.96-4.01-10.43-6.03l-6.24-3.61c-1.55-.89-3.09-1.77-4.63-2.67-.67-.39-1.33-.8-1.99-1.21-1.38-.85-2.8-1.72-4.26-2.41-.78-.36-1.72-.43-2.72-.51-.37-.03-.74-.06-1.1-.1-.33-.04-.68-.01-1.06,0-.15,0-.29.02-.44.03Z"/>
          <path d="M220.36,25.19c3.51,2.02,7.07,3.96,10.51,6.07,2.59,1.59,5.22,2.67,8.32,2.01-1.41.88-2.81,1.79-4.25,2.63-6.61,3.84-13.23,7.68-19.87,11.47-1.69.96-3.4,2.02-5.24,2.53-5.29,1.48-10.58-3.28-9.96-8.74.36-3.16,2.1-5.3,4.78-6.82,3.79-2.14,7.58-4.31,11.35-6.49,1.47-.85,2.9-1.77,4.35-2.66Z"/>
          <path d="M168.46,25.11c-2.23-1.28-4.46-2.55-6.68-3.84-2.1-1.22-4.11-2.61-6.3-3.63-1.17-.55-2.64-.49-3.98-.65-.55-.07-1.12.02-1.68.04,2.44-1.44,4.86-2.91,7.31-4.33,6.54-3.79,13.09-7.57,19.64-11.33,3.69-2.12,8.45-1.11,10.79,2.26,2.51,3.61,1.93,8.51-1.46,11.14-1.45,1.13-3.14,1.97-4.74,2.9-4.3,2.49-8.61,4.97-12.92,7.45Z"/>
        </g>
        <path d="M303.46,20.49c4.46.81,8.21,2.27,11.69,4.5.67.43,1.96.48,2.71.13,4.03-1.86,8.17-1.54,12.21-.47,3.94,1.04,7.39.24,10.8-1.65,1.04-.58,2.15-1.05,3.25-1.49.4-.16.89-.12,1.55.18-.86.76-1.75,1.49-2.56,2.29-1.19,1.18-2.36,2.39-3.48,3.63-4.73,5.28-12.39,6.22-18.29,3.5.74,1.43,1.2,2.55,1.86,3.54,2.43,3.63,6.07,5.66,10.09,6.85,2.85.85,5.69.02,8.23-1.61,1.41-.91,2.84-1.77,4.29-2.61,1.95-1.13,3.93-1.26,5.88.01,1.02.66,1.98.8,3.13.22.6-.3,1.39-.29,2.1-.31,1.58-.04,3.16-.01,4.84-.01.27,3.06-1.76,4.51-3.94,5.63-1.42.73-2.52,1.57-3.61,2.78-5.05,5.58-10.12,6.92-17.22,3.98-4.62-1.92-8.36-4.94-11.38-8.89-.41-.53-.89-1.01-1.5-1.4,1.37,4.81,3.2,9.35,7.09,12.73,1.41,1.22,3.01,2.05,4.85,2.47,2.8.64,5.58,1.38,8.37,2.07,3,.74,5.41,2.37,7.19,4.86.71,1,1.57,1.55,2.72,1.74,2.8.45,4.92,1.95,7,3.84,1.92,1.74,4.35,2.94,6.56,4.35.66.42,1.36.77,2.2,1.24-1.23,1.18-2.65,1.52-4,1.61-4.66.33-9.29.31-13.31-2.66-.29-.22-.74-.37-1.09-.34-4.32.36-7.63-1.85-10.86-4.24-2.85-2.1-4.79-5.04-6.18-8.13-1.4-3.13-3.38-5.54-5.98-7.6-.1.06-.33.13-.33.21-.22,3.26-.55,6.52-.58,9.78-.02,2.03.42,4.06.69,6.45-.65-.7-1.2-1.21-1.66-1.79-2.95-3.68-4.92-7.91-5.9-12.44-.56-2.58-.14-5.4-.02-8.1.09-1.9.39-3.8.65-5.69.59-4.35-1.28-7.89-4.07-10.85-4.61-4.9-10.38-7.2-17.26-6.45.71.25,1.43.47,2.12.77,2.01.89,3.83,1.96,4.55,4.28.16.51.71,1.04,1.22,1.28,3.5,1.64,5.2,4.59,5.31,8.22.17,5.8,2.42,10.66,5.88,15.11.1.13.2.25.28.39.03.06,0,.15,0,.43-.34-.03-.69.03-.97-.09-2.8-1.16-5.63-2.25-8.36-3.55-1.79-.85-3.53-1.89-4.16-4.06-.1-.36-.67-.62-1.07-.84-4.48-2.49-7.43-6.18-8.91-11.1-.57-1.91-1.29-3.78-2.06-5.61-.4-.94-1.02-1.8-1.6-2.66-.73-1.07-1.75-1.37-2.94-.83-1.52.69-3.08,1.34-4.52,2.18-1.77,1.04-3.44,2.26-5.63,3.72,1.25.15,2.01.12,2.68.35,1.19.4,2.46.77,3.44,1.5,1.39,1.03,1.74,2.65,1.35,4.33-.39,1.66-1.69,2.48-3.2,2.93-1.13.34-2.56-.46-2.93-1.51-.31-.87.17-1.94,1.17-2.3.34-.12.82.12,1.8.3-.91.48-1.32.7-1.78.94-.16.83.26,1.51,1,1.57.71.06,1.63-.16,2.16-.62,1.71-1.48,1.04-4.44-1.21-5.59-1.49-.76-3.07-.73-4.67-.36-2.43.56-4.31,2.03-6.09,3.65-5.08,4.61-10.15,9.24-15.15,14.07,1.32-.75,2.65-1.48,3.95-2.24,3.82-2.25,7.86-3.98,12.26-4.58,3.39-.46,6.83-.83,10.07.91.47.25,1.22.14,1.8,0,2.28-.56,4.42-.5,6.35,1.04,1.93,1.55,4.1,1.56,6.36.94.66-.18,1.34-.28,2.09-.44,0,.49.1.8-.01.93-2.4,2.6-4.22,5.85-7.89,7.04-.4.13-.79.55-.99.93-1.17,2.19-3.03,3.18-5.43,3.36-1.1.08-2.2.21-3.66.34-2.88,3.01-6.81,3.44-10.99,2.47-2.01-.47-3.99-1.15-5.91-1.91-3.73-1.47-7.56-2.48-11.54-3.06-2.12-.31-4.13.02-6.15.46-3.42.74-6.8,1.8-10.26,2.21-3.62.42-7.31.23-10.98.28-.28,0-.55-.22-1.35-.56.86-.19,1.24-.33,1.62-.35,1.83-.13,3.67-.36,5.5-.3,2.51.08,4.45-1.01,6.22-2.58,5.49-4.89,8.84-11.03,10.58-18.11.4-1.63.65-3.29,1.01-4.92.63-2.91,2.15-5.13,4.82-6.02.61-1.75.98-3.32,1.7-4.7.57-1.09,1.44-2.18,2.46-2.84,1.77-1.15,3-2.57,3.7-4.54.16-.46.61-.81,1.12-1.47.3.72.54,1.11.62,1.52.28,1.41.59,2.82.72,4.25.11,1.26.12,2.55-.06,3.8-.11.78-.04,1.29.42,1.95,1.42,2.01,1.4,5.02-.13,6.92-.77.96-.92,1.81-.9,3.01.02,1.72-.45,3.44-.75,5.16-.16.89-.4,1.76-.67,2.88,1.54-.74,1.85-1.86,2.06-3.06.52-2.9.98-5.82,1.6-8.7,1.27-5.94,3.75-11.35,7.42-16.21,1.48-1.95,3.31-3.49,5.62-4.31,1.03-.37,1.71-.78,2.24-1.86.57-1.15,1.65-2.09,2.66-2.95,1.44-1.23,3.02-2.3,4.57-3.46.2.29.43.47.44.67.2,2.3.37,4.6.55,6.91.1,1.34-.29,2.48-1.13,3.55-.39.5-.71,1.3-.61,1.88.5,3.08-.69,5.57-2.81,7.52-1.74,1.6-3.75,2.99-5.83,4.12-3.43,1.88-6.22,4.46-8.82,7.29-.53.57-.89,1.29-1.09,2.23.33-.2.69-.35.98-.6,5.09-4.5,10.49-8.6,16.53-11.74,1.71-.89,3.81-1.06,5.75-1.44,1.4-.27,2.85-.36,4.28-.47,3.66-.29,6.73-1.89,9.47-4.21,1.5-1.28,2.51-2.9,2.75-4.9.22-1.84-.62-3.19-2.42-3.97-1.23-.54-2.76-.25-3.68.89-.41.5-.78,1.33-.65,1.89.1.44,1,.69,1.69,1.11-.12.59-.76.85-1.32.55-.56-.3-1.15-.92-1.32-1.51-.46-1.61,1.25-3.74,3.16-4.17,3.25-.72,6.32,2.21,5.72,5.5-.48,2.63-1.77,4.78-3.99,6.31-1.17.81-2.39,1.55-3.94,2.55Z"/>
        <path class="cls-2" d="M244.71,52.79c6.7-7.28,11.84-15.95,14.8-25.4.38-1.18.86-2.9,1.19-4.09-.09.7-.19,1.41-.31,2.11-1.89,10.53-7.49,20.47-15.69,27.37h0Z"/>
        <path class="cls-2" d="M268.65,34.07c1.34-9.43,7.08-18.15,15.05-23.32.54-.33,1.08-.65,1.63-.97-.85.68-2.08,1.68-2.89,2.41-6.55,5.8-11.32,13.47-13.79,21.87h0Z"/>
        <path class="cls-2" d="M295.16,22.89c7.77,4.84,11.23,13.79,15.7,21.35.54.96,1.41,2.32,1.99,3.25-6.75-7.59-9.74-18-17.7-24.6h0Z"/>
        <path class="cls-2" d="M319.68,26.49c5.24,2.7,11,3.48,16.77,2.29-5.3,2.62-12.36,1.65-16.77-2.29h0Z"/>
        <path class="cls-2" d="M323.12,40.31c.17,7.9.23,15.91,4.08,23.04-5.09-6.39-5.33-15.32-4.08-23.04h0Z"/>
        <path class="cls-2" d="M327.06,40.06c6.5,4.83,14.67,8.59,21.78,2.63-6.23,7.36-16.22,3.5-21.78-2.63h0Z"/>
        <path class="cls-2" d="M334.18,55.8c6.79,5.6,14.46,10.05,22.73,13.07.56.19,1.11.39,1.66.6-9.3-1.73-18.06-6.63-24.39-13.67h0Z"/>
        <path class="cls-2" d="M256.33,52.79c10.47-2.98,21.76.25,32.09-3.48-9.8,5.02-21.63,1.88-32.09,3.48h0Z"/>
        <path d="M82.91,17.95c-2.22-1.53-3.52-3.68-3.99-6.31-.6-3.29,2.47-6.23,5.72-5.5,1.92.43,3.62,2.56,3.16,4.17-.17.59-.76,1.21-1.32,1.51-.56.3-1.2.04-1.32-.55.69-.42,1.59-.67,1.69-1.11.13-.56-.24-1.39-.65-1.89-.92-1.13-2.45-1.42-3.68-.89-1.8.78-2.64,2.13-2.42,3.97.24,2.01,1.25,3.63,2.75,4.9,2.73,2.33,5.81,3.92,9.47,4.21,1.43.11,2.87.2,4.28.47,1.94.37,4.04.55,5.75,1.44,6.03,3.14,11.43,7.24,16.53,11.74.28.25.65.4.98.6-.2-.94-.57-1.66-1.09-2.23-2.61-2.83-5.39-5.41-8.82-7.29-2.08-1.14-4.09-2.52-5.83-4.12-2.13-1.95-3.31-4.45-2.81-7.52.1-.59-.23-1.39-.61-1.88-.84-1.07-1.23-2.22-1.13-3.55.18-2.3.35-4.61.55-6.91.02-.2.25-.38.44-.67,1.55,1.16,3.13,2.23,4.57,3.46,1.01.86,2.09,1.81,2.66,2.95.54,1.08,1.21,1.49,2.24,1.86,2.31.82,4.15,2.36,5.62,4.31,3.67,4.85,6.15,10.26,7.42,16.21.62,2.88,1.08,5.8,1.6,8.7.21,1.19.53,2.31,2.06,3.06-.26-1.12-.51-2-.67-2.88-.3-1.71-.78-3.44-.75-5.16.02-1.2-.13-2.05-.9-3.01-1.53-1.9-1.55-4.91-.13-6.92.47-.66.53-1.17.42-1.95-.18-1.24-.17-2.54-.06-3.8.13-1.43.44-2.84.72-4.25.08-.41.32-.8.62-1.52.51.66.96,1.02,1.12,1.47.7,1.97,1.93,3.39,3.7,4.54,1.02.66,1.89,1.75,2.46,2.84.73,1.38,1.09,2.96,1.7,4.7,2.66.89,4.18,3.1,4.82,6.02.36,1.64.61,3.3,1.01,4.92,1.74,7.08,5.09,13.22,10.58,18.11,1.77,1.58,3.71,2.67,6.22,2.58,1.83-.06,3.67.18,5.5.3.38.03.75.16,1.62.35-.8.34-1.08.56-1.35.56-3.66-.05-7.36.14-10.98-.28-3.46-.4-6.84-1.47-10.26-2.21-2.02-.44-4.03-.77-6.15-.46-3.97.58-7.8,1.59-11.54,3.06-1.92.76-3.9,1.44-5.91,1.91-4.18.97-8.11.54-10.99-2.47-1.46-.14-2.56-.26-3.66-.34-2.4-.18-4.26-1.17-5.43-3.36-.21-.39-.6-.81-.99-.93-3.67-1.19-5.49-4.45-7.89-7.04-.11-.12-.01-.44-.01-.93.75.15,1.43.26,2.09.44,2.26.61,4.43.6,6.36-.94,1.93-1.54,4.07-1.61,6.35-1.04.57.14,1.33.26,1.8,0,3.24-1.74,6.68-1.38,10.07-.91,4.41.6,8.44,2.33,12.26,4.58,1.31.77,2.63,1.5,3.95,2.24-5-4.84-10.07-9.46-15.15-14.07-1.78-1.62-3.66-3.09-6.09-3.65-1.6-.37-3.18-.4-4.67.36-2.25,1.15-2.92,4.12-1.21,5.59.52.45,1.45.67,2.16.62.73-.06,1.16-.75,1-1.57-.46-.24-.87-.46-1.78-.94.98-.18,1.46-.42,1.8-.3,1,.37,1.48,1.43,1.17,2.3-.38,1.06-1.8,1.85-2.93,1.51-1.51-.46-2.81-1.27-3.2-2.93-.39-1.67-.03-3.29,1.35-4.33.98-.73,2.25-1.1,3.44-1.5.67-.23,1.44-.2,2.68-.35-2.19-1.46-3.86-2.68-5.63-3.72-1.44-.84-3-1.49-4.52-2.18-1.19-.54-2.21-.24-2.94.83-.58.85-1.2,1.71-1.6,2.66-.77,1.84-1.49,3.71-2.06,5.61-1.48,4.92-4.43,8.61-8.91,11.1-.4.22-.96.49-1.07.84-.62,2.17-2.37,3.2-4.16,4.06-2.73,1.3-5.56,2.39-8.36,3.55-.28.12-.63.06-.97.09,0-.28-.03-.38,0-.43.08-.14.18-.27.28-.39,3.47-4.45,5.71-9.31,5.88-15.11.11-3.63,1.81-6.57,5.31-8.22.51-.24,1.06-.77,1.22-1.28.72-2.32,2.54-3.39,4.55-4.28.69-.3,1.41-.51,2.12-.77-6.88-.76-12.65,1.55-17.26,6.45-2.79,2.96-4.66,6.5-4.07,10.85.26,1.89.56,3.79.65,5.69.12,2.7.54,5.52-.02,8.1-.98,4.53-2.95,8.77-5.9,12.44-.46.58-1.01,1.09-1.66,1.79.27-2.4.71-4.43.69-6.45-.03-3.26-.36-6.52-.58-9.78,0-.08-.23-.15-.33-.21-2.59,2.07-4.58,4.48-5.98,7.6-1.38,3.09-3.33,6.03-6.18,8.13-3.23,2.39-6.54,4.6-10.86,4.24-.36-.03-.8.12-1.09.34-4.02,2.97-8.65,2.99-13.31,2.66-1.35-.1-2.77-.44-4-1.61.84-.47,1.54-.82,2.2-1.24,2.22-1.41,4.64-2.61,6.56-4.35,2.08-1.89,4.21-3.39,7-3.84,1.14-.19,2-.74,2.72-1.74,1.78-2.49,4.19-4.13,7.19-4.86,2.79-.69,5.57-1.42,8.37-2.07,1.84-.42,3.45-1.25,4.85-2.47,3.89-3.38,5.72-7.92,7.09-12.73-.61.39-1.09.87-1.5,1.4-3.02,3.96-6.76,6.97-11.38,8.89-7.1,2.94-12.17,1.6-17.22-3.98-1.1-1.21-2.19-2.05-3.61-2.78-2.17-1.12-4.2-2.57-3.94-5.63,1.68,0,3.26-.03,4.84.01.71.02,1.5,0,2.1.31,1.15.58,2.11.44,3.13-.22,1.95-1.27,3.93-1.14,5.88-.01,1.45.84,2.89,1.71,4.29,2.61,2.54,1.63,5.37,2.46,8.23,1.61,4.02-1.19,7.66-3.22,10.09-6.85.66-.99,1.12-2.11,1.86-3.54-5.9,2.72-13.56,1.78-18.29-3.5-1.12-1.25-2.29-2.45-3.48-3.63-.81-.8-1.7-1.53-2.56-2.29.66-.3,1.15-.34,1.55-.18,1.11.45,2.21.92,3.25,1.49,3.4,1.88,6.86,2.69,10.8,1.65,4.04-1.07,8.18-1.39,12.21.47.74.34,2.03.3,2.71-.13,3.48-2.24,7.23-3.7,11.69-4.5-1.55-1-2.77-1.74-3.94-2.55Z"/>
        <path class="cls-2" d="M145.6,52.79c-8.2-6.9-13.8-16.84-15.69-27.37-.11-.7-.22-1.41-.31-2.11.33,1.18.81,2.9,1.19,4.09,2.97,9.44,8.11,18.12,14.8,25.4h0Z"/>
        <path class="cls-2" d="M121.67,34.07c-2.46-8.4-7.23-16.07-13.79-21.87-.82-.74-2.04-1.73-2.89-2.41.55.31,1.09.63,1.63.97,7.98,5.17,13.72,13.89,15.05,23.32h0Z"/>
        <path class="cls-2" d="M95.15,22.89c-7.95,6.59-10.94,17-17.7,24.6.58-.92,1.44-2.29,1.99-3.25,4.47-7.55,7.93-16.51,15.7-21.35h0Z"/>
        <path class="cls-2" d="M70.64,26.49c-4.41,3.94-11.47,4.91-16.77,2.29,5.77,1.19,11.53.41,16.77-2.29h0Z"/>
        <path class="cls-2" d="M67.19,40.31c1.25,7.73,1.02,16.65-4.08,23.04,3.84-7.13,3.91-15.14,4.08-23.04h0Z"/>
        <path class="cls-2" d="M63.25,40.06c-5.55,6.13-15.55,9.99-21.78,2.63,7.11,5.96,15.27,2.2,21.78-2.63h0Z"/>
        <path class="cls-2" d="M56.14,55.8c-6.33,7.04-15.09,11.94-24.39,13.67.95-.35,2.35-.86,3.31-1.24,7.67-2.95,14.74-7.22,21.08-12.43h0Z"/>
        <path class="cls-2" d="M133.98,52.79c-10.47-1.6-22.3,1.54-32.09-3.48,10.33,3.72,21.62.5,32.09,3.48h0Z"/>
        <path class="cls-2" d="M43.6,88.56c.72,21.91.77,43.97.14,65.89-.72-21.92-.77-43.97-.14-65.89h0Z"/>
        <path class="cls-2" d="M71.05,81.27c6.28,2.32,10.21,8.46,12.41,14.52,4.96,13.96,3.44,29.93-3.5,42.95-2.29,4.32-5.27,8.33-8.68,11.81,3.19-3.7,5.95-7.73,8.12-12.1,6.44-13.03,7.92-28.56,3.34-42.41-2.04-6.04-5.64-12.08-11.69-14.77h0Z"/>
        <path class="cls-2" d="M104.01,80.63c.95,21.97.88,44.11-.2,66.08-.26-21.25-.2-44.84.2-66.08h0Z"/>
        <path class="cls-2" d="M115.55,106.36c4.64-.99,8.76,4.27,6.7,8.58-.56,1.36-1.62,2.51-2.92,3.08,4.66-4,2.33-11.16-3.79-11.65h0Z"/>
        <path class="cls-2" d="M121.41,75.28c1.33-.42,3.07-.8,4.35.07.3.28.44.63.53.92.72,2.72,1.1,5.51.83,8.33-.69-2.7-1.17-5.39-1.74-8.08-.1-.5-.25-.66-.75-.83-1-.28-2.1-.39-3.22-.4h0Z"/>
        <path class="cls-2" d="M120.29,148.45c1.79-.86,3.95-1.31,5.69-2.12,1.54-1.17,1.45-3.49,2.07-5.27.33-1.33.64-2.66.94-4.01.06,1.38-.01,2.78-.21,4.15-.81,6.92-2.27,6.28-8.49,7.25h0Z"/>
        <path class="cls-2" d="M139.37,74.8c2.83-.36,5.89-.53,8.62.48,1.7.87,1.98,3.03,2.54,4.6,2.65,8.82,4.13,17.92,5.63,26.98.63,3.97,1.54,9.68,2.04,13.62-.88-3.84-2.02-9.55-2.8-13.48-1.76-8.99-3.23-18.05-5.6-26.9-.51-1.55-.59-3.43-2.07-4.31-2.59-1.06-5.57-1.09-8.36-.98h0Z"/>
        <path class="cls-2" d="M186.65,70.78c-6.37,2.79-6.86,10.97-8.81,16.79-4.13,14.66-9.52,32.77-14.07,47.37-1.01,3.14-1.98,6.28-3.02,9.41.82-3.19,1.7-6.37,2.55-9.55,4.09-14.76,9.34-32.88,13.81-47.45,2.08-5.8,2.92-14.14,9.54-16.57h0Z"/>
        <path class="cls-2" d="M204.19,72.52c-.07,23.81-.83,47.77-2.25,71.55.08-23.83.83-47.77,2.25-71.55h0Z"/>
        <path class="cls-2" d="M212.53,96.83c5.32-2.78,13.14,1.01,12.22,7.53-.29,1.94-1.53,3.73-3.26,4.49,3.01-2.2,3.28-6.69.85-9.36-2.33-2.83-6.33-3.47-9.82-2.65h0Z"/>
        <path class="cls-2" d="M223.18,70.1c.72-.19,1.55-.32,2.29-.43.59-.1,1.39-.14,1.76.55.82,2.76.98,5.66.62,8.53-.59-2.5-.93-5-1.29-7.51-.03-.25-.06-.52-.11-.62-.13-.3-.65-.27-.99-.29-.75-.04-1.54-.1-2.29-.22h0Z"/>
        <path class="cls-2" d="M267.74,72.55c1.36-.54,2.89-.62,4.3-.04,1.49.84,1.15,2.84,1.3,4.19.09,3.26-.13,3.3-.78.09-.35-1.08-.06-2.74-.99-3.46-1.12-.57-2.52-.71-3.84-.79h0Z"/>
        <path class="cls-2" d="M260.57,100.52c6.04-2.29,11.65,4.96,7.33,10.02-.56.56-1.27,1.04-2.06,1.07.73-.26,1.29-.77,1.68-1.38,3.08-4.93-1.49-10.47-6.95-9.71h0Z"/>
        <path class="cls-2" d="M249.31,73.47c.17,21.86-.34,43.86-1.52,65.7-.17-21.87.34-43.86,1.52-65.7h0Z"/>
        <path class="cls-2" d="M319.83,77.99c.91,4.75,1.14,9.54.68,14.35-.92-4.75-1.14-9.54-.68-14.35h0Z"/>
        <path class="cls-2" d="M290.11,82.6c-4.61,6.13.02,14.03,3.86,19.31,6.57,7.48,14.41,13.67,21.28,20.89,11.71,12.08,22.06,28.21,19.74,45.74-.65,5.66-1.92,11.45-5.13,16.24-3.14,4.8-7.61,8.68-12.76,11.11,5.04-2.63,9.39-6.56,12.34-11.37,4.44-7.23,5.34-16.18,4.86-24.5-1.49-14.22-10.16-26.44-19.72-36.59-6.84-7.2-14.62-13.55-21.06-21.17-3.82-5.4-8.29-13.65-3.41-19.67h0Z"/>
        <path class="cls-2" d="M294.83,130.38c7.92,3.26,15.25,9.8,16.57,18.65.69,4.21.39,9.44-3.36,12.22-3.79,2.87-8.67,1.29-12.37-.82,3.35,1.4,7.17,2.8,10.61,1.03,4.43-2.21,4.97-7.86,4.13-12.26-1.2-8.65-8.22-14.91-15.58-18.82h0Z"/>
        <path class="cls-2" d="M361.12,89.01c.54,20.87.4,41.87-.41,62.74-.54-20.88-.4-41.88.41-62.74h0Z"/>
        <path class="cls-2" d="M377.85,87.41c1.04.12,2.18.32,3.22.51.55.12,1.31.16,1.71.72.37.55.32,1.19.43,1.77.39,3.6.48,7.24-.05,10.84-.43-3.58-.63-7.18-.89-10.76-.09-.55.11-1.3-.41-1.6-.24-.13-.62-.22-.96-.34-1-.34-2.09-.73-3.06-1.14h0Z"/>
        <path class="cls-2" d="M330.23,94.26c.61-5.89,7.02-9.45,12.48-9.27-5.28,1.37-10.4,3.92-12.48,9.27h0Z"/>
      </g>
      <g>
        <path class="cls-3" d="M28.49,197.12c45.03-12.86,151.9-24.25,241.46-10.89"/>
        <path class="cls-1" d="M96.61,170.36c-.49.06-.83.31-1.03.76-.09.19-.13.41-.11.65l1.3,10.76c.11.93.27,1.71.47,2.33l.1.31-.19.02-11.74-8.75,1,8.28c.04.35.2.63.48.84s.59.3.94.26l.4-.05.03.21-6.32.77-.03-.21.38-.05c.36-.04.65-.2.87-.48s.31-.59.27-.95l-1.31-10.82c-.11-.92-.27-1.67-.47-2.27l-.08-.31.19-.02,11.74,8.75-1-8.23c-.06-.36-.23-.65-.51-.86-.28-.21-.59-.3-.94-.26l-.38.05-.03-.21,6.32-.77.03.21-.4.05Z"/>
        <path class="cls-1" d="M114.54,182.95l.19-.02.02.21-6.67.65-.02-.21.19-.02c.31-.03.52-.15.65-.35.13-.2.18-.39.17-.55-.02-.17-.07-.33-.15-.49l-1.28-2.47-4.89.48-.84,2.68c-.05.19-.07.36-.05.52s.11.33.28.5c.17.17.41.24.72.21l.17-.02.02.21-4.47.44-.02-.21.19-.02c.32-.03.63-.16.93-.39.3-.23.54-.54.71-.96l3.76-11.4c.52-1.44.78-2.39.78-2.84l.19-.02,7.54,13.02c.25.38.54.66.88.83.34.17.68.24,1.01.21ZM103.01,179.27l4.18-.41-2.53-4.94-1.65,5.35Z"/>
        <path class="cls-1" d="M130.03,167.44c-.49.04-.84.27-1.06.71-.1.19-.14.4-.14.64l.82,10.8c.07.94.19,1.72.37,2.35l.09.31h-.19s-11.34-9.25-11.34-9.25l.63,8.31c.03.35.17.64.44.86s.58.32.93.3l.4-.03.02.21-6.34.48-.02-.21.38-.03c.36-.03.66-.17.89-.44.23-.26.33-.58.31-.94l-.83-10.87c-.07-.92-.19-1.68-.36-2.29l-.07-.31h.19s11.34,9.25,11.34,9.25l-.63-8.27c-.04-.36-.2-.66-.47-.88-.27-.23-.58-.32-.93-.3l-.38.03-.02-.21,6.34-.48.02.21-.4.03Z"/>
        <path class="cls-1" d="M139.9,167.55l.68,12.31c.03.36.19.66.46.9.27.24.59.35.95.33h.25s.03.19.03.19l-6.37.35v-.21s.26-.02.26-.02c.35-.02.65-.16.89-.43.24-.27.37-.57.38-.93l-.69-12.33-2.83.16c-.64.05-1.14.28-1.5.69-.36.41-.52.93-.48,1.56v.25s-.2.01-.2.01l-.2-3.65c.59.21,1.42.29,2.5.24l8.45-.47c.43-.02.9-.09,1.41-.2.51-.11.85-.22,1.04-.31l.2,3.65h-.21s-.01-.24-.01-.24c-.05-.87-.41-1.46-1.09-1.79-.32-.16-.69-.24-1.13-.23l-2.81.16Z"/>
        <path class="cls-1" d="M147.14,180.82c.36-.01.67-.16.92-.42.25-.27.37-.58.37-.95l-.45-11.69c-.04-.36-.16-.62-.35-.79-.35-.29-.7-.44-1.05-.42h-.27s0-.2,0-.2l8.04-.31c.69-.03,1.25-.1,1.69-.22.44-.12.71-.21.81-.25l.14,3.67h-.21s0-.24,0-.24c-.03-.87-.38-1.47-1.04-1.81-.31-.17-.68-.25-1.1-.25l-3.53.14.23,6.11,2.77-.11c.52-.03.94-.23,1.26-.58.32-.36.47-.79.45-1.29v-.19s.2,0,.2,0l.19,4.85h-.21s0-.16,0-.16c-.02-.52-.2-.94-.54-1.26-.34-.32-.76-.48-1.27-.48l-2.81.11.23,5.9,2.75-.11c1.02-.04,1.87-.37,2.54-.98.67-.61,1.15-1.47,1.45-2.56h.21s-.8,4.31-.8,4.31l-10.87.42v-.21s.26-.01.26-.01Z"/>
        <path class="cls-1" d="M160.17,178.59c-.02-1.01.18-1.87.59-2.6h.19c-.01.11-.02.22-.01.33.02.97.39,1.8,1.1,2.51.71.71,1.67,1.04,2.87,1.02.94-.02,1.66-.26,2.18-.72.52-.46.77-1.03.75-1.72,0-.41-.15-.77-.41-1.08-.27-.32-.7-.66-1.31-1.04l-3.71-2.33c-1.38-.88-2.08-1.98-2.11-3.31,0-.14,0-.28.03-.42.06-1.11.47-2.01,1.23-2.7.76-.69,1.79-1.05,3.1-1.08.77-.02,1.72.03,2.86.15l1.32-.03-.2,3.09h-.21c-.02-.72-.3-1.3-.85-1.73-.55-.43-1.27-.63-2.17-.61-1.09.02-1.88.38-2.35,1.06-.24.33-.36.65-.36.97,0,.32.08.59.21.81.2.36.64.74,1.31,1.15l4.07,2.51c1.28.8,1.93,1.86,1.96,3.19.03,1.48-.45,2.63-1.45,3.45-1,.81-2.34,1.24-4.02,1.28-.95.02-1.83-.08-2.64-.29-.81-.21-1.41-.51-1.79-.9-.1-.26-.16-.58-.17-.96Z"/>
        <path class="cls-1" d="M179.91,180.02c-.3.3-.66.44-1.08.45-.42,0-.78-.14-1.07-.44-.29-.29-.44-.65-.45-1.07,0-.42.14-.78.44-1.08.29-.3.65-.45,1.07-.46.42,0,.78.15,1.08.45.3.3.45.66.46,1.08s-.15.78-.45,1.07Z"/>
        <path class="cls-1" d="M192.7,165.33c.83.01,1.65.19,2.46.54.81.35,1.45.85,1.91,1.5.46.65.68,1.41.67,2.28-.01.74-.25,1.56-.71,2.47-.25.5-.81,1.23-1.69,2.18-.54.59-1.33,1.28-2.35,2.05-1.03.78-1.58,1.19-1.65,1.25l4.33.06c.62,0,1.13-.14,1.55-.45.42-.31.81-.82,1.19-1.55h.21s-1.31,4.73-1.31,4.73l-10.04-.15v-.21c.2-.22.57-.62,1.1-1.2s.94-1.02,1.22-1.32c.28-.3.66-.73,1.15-1.31.49-.57.87-1.05,1.15-1.42.27-.37.59-.83.95-1.36.36-.53.64-1.01.83-1.43.46-1,.7-1.94.71-2.81.01-.88-.22-1.59-.69-2.14-.47-.55-1.1-.84-1.89-.85-1.02-.02-1.8.32-2.32.99-.53.68-.79,1.63-.8,2.84h-.21s-.96-3.25-.96-3.25c1.15-1,2.88-1.49,5.19-1.46Z"/>
        <path class="cls-1" d="M202.3,167.59c1.1-1.34,2.56-1.98,4.38-1.92,1.83.06,3.24.8,4.24,2.21,1,1.41,1.46,3.29,1.38,5.63-.08,2.34-.67,4.18-1.76,5.52-1.1,1.34-2.56,1.98-4.38,1.92-1.83-.06-3.24-.8-4.24-2.21-1-1.41-1.46-3.29-1.38-5.63.08-2.34.67-4.18,1.76-5.52ZM206.67,166.55c-1.16-.04-1.98.94-2.45,2.94-.23,1-.37,2.24-.42,3.73-.08,2.23.09,3.92.5,5.07.41,1.16,1.04,1.75,1.9,1.78s1.53-.52,2.02-1.64c.49-1.12.77-2.8.84-5.02.07-2.22-.09-3.91-.5-5.07-.41-1.16-1.04-1.75-1.89-1.78Z"/>
        <path class="cls-1" d="M219.41,166.22c.82.04,1.64.26,2.44.64s1.42.9,1.85,1.57.63,1.44.58,2.3c-.04.74-.31,1.55-.8,2.44-.27.49-.86,1.19-1.78,2.11-.56.57-1.37,1.23-2.43,1.96-1.06.74-1.62,1.13-1.69,1.18l4.32.23c.62.03,1.14-.1,1.57-.39.43-.29.84-.79,1.25-1.5h.21s-1.49,4.68-1.49,4.68l-10.02-.54v-.21c.22-.21.6-.6,1.16-1.16s.98-.98,1.27-1.27c.29-.29.69-.71,1.2-1.26.51-.55.91-1.01,1.2-1.38.29-.36.62-.8,1.01-1.32.38-.52.68-.98.88-1.39.5-.98.78-1.91.82-2.78s-.16-1.6-.61-2.17c-.45-.57-1.07-.88-1.85-.92-1.02-.05-1.81.25-2.36.9s-.86,1.59-.91,2.81h-.21s-.83-3.29-.83-3.29c1.19-.96,2.93-1.38,5.24-1.25Z"/>
        <path class="cls-1" d="M231.26,172.52c1.2.09,2.21.44,3.02,1.04,1.28.92,1.86,2.23,1.73,3.92-.07.94-.32,1.75-.76,2.44s-.95,1.24-1.54,1.65c-1.57,1.05-3.35,1.5-5.34,1.36-1.03-.08-1.89-.3-2.58-.67l.06-.21s.16.01.36.03c.2.01.53,0,1.02-.07.48-.06,1.02-.2,1.62-.4s1.15-.46,1.67-.78c.51-.32.97-.74,1.36-1.26.44-.6.68-1.26.74-1.99.05-.73-.15-1.36-.6-1.9-.49-.6-1.18-.93-2.08-1-.9-.07-1.84.03-2.83.3l-.18-.12,2.22-7,5.44-.04c.75.06,1.34-.25,1.75-.92l.21.02-1.07,3.44h-5.88s-.78,2.31-.78,2.31c.9-.15,1.72-.19,2.47-.13Z"/>
      </g>
    </g>
  </g>
</svg>