<?xml version="1.0" encoding="UTF-8"?>
<svg id="Calque_1" xmlns="http://www.w3.org/2000/svg" version="1.1" viewBox="0 0 167.3000031 108.8514938">
  <!-- Generator: Adobe Illustrator 29.0.1, SVG Export Plug-In . SVG Version: 2.1.0 Build 192)  -->
  <defs>
    <style>
      .st0 {
        fill: #0c1113;
      }

      .st1 {
        fill: #009ddf;
      }
    </style>
  </defs>
  <g id="Calque_2">
    <g id="Calque_1-2">
      <path class="st0" d="M57.7386169,0C24.1366348,0,0,25.0831699,0,54.6623802s23.9000015,54.189106,57.2653503,54.189106,57.7386169-25.083168,57.7386169-54.6623802S90.8673325,0,57.7386169,0M57.7386169,77.8524857c-12.7782173,0-22.0069351-10.8851471-22.0069351-23.6633682s8.5188103-23.1901016,21.770298-23.1901016c12.7782173,0,22.0069313,10.8851471,22.0069313,23.6633682s-8.5188065,23.190094-21.7702942,23.190094"/>
      <path class="st1" d="M167.3000031,86.3712921c0,12.3049545-9.9386139,22.2435684-22.243576,22.2435684s-22.2435684-9.9386139-22.2435684-22.2435684,9.9386215-22.2435608,22.2435684-22.2435608c12.3049622,0,22.2435608,9.9386139,22.2435608,22.2435608h0"/>
    </g>
  </g>
</svg>